<?xml version="1.0" encoding="utf-8"?>
<!-- Generator: Adobe Illustrator 21.0.0, SVG Export Plug-In . SVG Version: 6.00 Build 0)  -->
<svg version="1.1" id="grid" xmlns="http://www.w3.org/2000/svg" xmlns:xlink="http://www.w3.org/1999/xlink" x="0px" y="0px"
	 viewBox="0 0 3600 5760" style="enable-background:new 0 0 3600 5760;" xml:space="preserve">
<style type="text/css">
	.st0{fill:none;stroke:#00AEEF;stroke-width:60;stroke-miterlimit:10;}
	.st1{fill:#00AEEF;}
	.st2{fill:#68A9C2;stroke:#000000;stroke-width:18;stroke-miterlimit:10;}
	.st3{display:none;}
	.st4{display:inline;}
	.st5{display:inline;clip-path:url(#SVGID_2_);}
	.st6{fill:none;stroke:#000000;stroke-width:0.125;stroke-miterlimit:10;}
	.st7{fill:#6D6D6D;stroke:#000000;stroke-width:18;stroke-miterlimit:10;}
	.st8{fill:#00AEEF;stroke:#05090A;stroke-width:18;stroke-miterlimit:10;}
	.st9{fill:#629FB2;stroke:#000000;stroke-width:18;stroke-miterlimit:10;}
</style>
<g>
	<g>
		<line class="st0" x1="1230.2" y1="2469.6" x2="1223" y2="904.5"/>
		<g>
			<polygon class="st1" points="837.1,963.3 1222.1,717.6 1609.5,959.8 1609.5,962.3 837.1,965.8 			"/>
		</g>
	</g>
</g>
<g>
	<g>
		<line class="st0" x1="1806" y1="2244.2" x2="1798.7" y2="571.2"/>
		<g>
			<polygon class="st1" points="1412.8,629.9 1797.9,384.3 2185.2,626.5 2185.2,629 1412.8,632.4 			"/>
		</g>
	</g>
</g>
<g>
	<g>
		<line class="st0" x1="2366.2" y1="2012.9" x2="2373.4" y2="239.8"/>
		<g>
			<polygon class="st1" points="1987,295.3 2374.2,52.9 2759.4,298.4 2759.4,301 1987,297.8 			"/>
		</g>
	</g>
</g>
<polygon class="st2" points="2950.2,3711.8 3526.2,4050.3 1798.2,5042 1222.2,4709.4 "/>
<polygon class="st2" points="2373.9,2714.3 2950.2,3046.4 1798.2,3711.8 1222.2,3379.2 "/>
<g class="st3">
	<defs>
		<rect id="SVGID_1_" x="-504" y="-144" width="4608" height="6048"/>
	</defs>
	<clipPath id="SVGID_2_" class="st4">
		<use xlink:href="#SVGID_1_"  style="overflow:visible;"/>
	</clipPath>
	<g class="st5">
		<line class="st6" x1="-648" y1="6048" x2="-648" y2="-2592"/>
		<line class="st6" x1="-576" y1="6048" x2="-576" y2="-2592"/>
		<line class="st6" x1="-504" y1="6048" x2="-504" y2="-2592"/>
		<line class="st6" x1="-432" y1="6048" x2="-432" y2="-2592"/>
		<line class="st6" x1="-360" y1="6048" x2="-360" y2="-2592"/>
		<line class="st6" x1="-288" y1="6048" x2="-288" y2="-2592"/>
		<line class="st6" x1="-216" y1="6048" x2="-216" y2="-2592"/>
		<line class="st6" x1="-144" y1="6048" x2="-144" y2="-2592"/>
		<line class="st6" x1="-72" y1="6048" x2="-72" y2="-2592"/>
		<line class="st6" x1="0" y1="6048" x2="0" y2="-2592"/>
		<line class="st6" x1="72" y1="6048" x2="72" y2="-2592"/>
		<line class="st6" x1="144" y1="6048" x2="144" y2="-2592"/>
		<line class="st6" x1="216" y1="6048" x2="216" y2="-2592"/>
		<line class="st6" x1="288" y1="6048" x2="288" y2="-2592"/>
		<line class="st6" x1="360" y1="6048" x2="360" y2="-2592"/>
		<line class="st6" x1="432" y1="6048" x2="432" y2="-2592"/>
		<line class="st6" x1="504" y1="6048" x2="504" y2="-2592"/>
		<line class="st6" x1="576" y1="6048" x2="576" y2="-2592"/>
		<line class="st6" x1="648" y1="6048" x2="648" y2="-2592"/>
		<line class="st6" x1="720" y1="6048" x2="720" y2="-2592"/>
		<line class="st6" x1="792" y1="6048" x2="792" y2="-2592"/>
		<line class="st6" x1="864" y1="6048" x2="864" y2="-2592"/>
		<line class="st6" x1="936" y1="6048" x2="936" y2="-2592"/>
		<line class="st6" x1="1008" y1="6048" x2="1008" y2="-2592"/>
		<line class="st6" x1="1080" y1="6048" x2="1080" y2="-2592"/>
		<line class="st6" x1="1152" y1="6048" x2="1152" y2="-2592"/>
		<line class="st6" x1="1224" y1="6048" x2="1224" y2="-2592"/>
		<line class="st6" x1="1296" y1="6048" x2="1296" y2="-2592"/>
		<line class="st6" x1="1368" y1="6048" x2="1368" y2="-2592"/>
		<line class="st6" x1="1440" y1="6048" x2="1440" y2="-2592"/>
		<line class="st6" x1="1512" y1="6048" x2="1512" y2="-2592"/>
		<line class="st6" x1="1584" y1="6048" x2="1584" y2="-2592"/>
		<line class="st6" x1="1656" y1="6048" x2="1656" y2="-2592"/>
		<line class="st6" x1="1728" y1="6048" x2="1728" y2="-2592"/>
		<line class="st6" x1="1800" y1="6048" x2="1800" y2="-2592"/>
		<line class="st6" x1="1872" y1="6048" x2="1872" y2="-2592"/>
		<line class="st6" x1="1944" y1="6048" x2="1944" y2="-2592"/>
		<line class="st6" x1="2016" y1="6048" x2="2016" y2="-2592"/>
		<line class="st6" x1="2088" y1="6048" x2="2088" y2="-2592"/>
		<line class="st6" x1="2160" y1="6048" x2="2160" y2="-2592"/>
		<line class="st6" x1="2232" y1="6048" x2="2232" y2="-2592"/>
		<line class="st6" x1="2304" y1="6048" x2="2304" y2="-2592"/>
		<line class="st6" x1="2376" y1="6048" x2="2376" y2="-2592"/>
		<line class="st6" x1="2448" y1="6048" x2="2448" y2="-2592"/>
		<line class="st6" x1="2520" y1="6048" x2="2520" y2="-2592"/>
		<line class="st6" x1="2592" y1="6048" x2="2592" y2="-2592"/>
		<line class="st6" x1="2664" y1="6048" x2="2664" y2="-2592"/>
		<line class="st6" x1="2736" y1="6048" x2="2736" y2="-2592"/>
		<line class="st6" x1="2808" y1="6048" x2="2808" y2="-2592"/>
		<line class="st6" x1="2880" y1="6048" x2="2880" y2="-2592"/>
		<line class="st6" x1="2952" y1="6048" x2="2952" y2="-2592"/>
		<line class="st6" x1="3024" y1="6048" x2="3024" y2="-2592"/>
		<line class="st6" x1="3096" y1="6048" x2="3096" y2="-2592"/>
		<line class="st6" x1="3168" y1="6048" x2="3168" y2="-2592"/>
		<line class="st6" x1="3240" y1="6048" x2="3240" y2="-2592"/>
		<line class="st6" x1="3312" y1="6048" x2="3312" y2="-2592"/>
		<line class="st6" x1="3384" y1="6048" x2="3384" y2="-2592"/>
		<line class="st6" x1="3456" y1="6048" x2="3456" y2="-2592"/>
		<line class="st6" x1="3528" y1="6048" x2="3528" y2="-2592"/>
		<line class="st6" x1="3600" y1="6048" x2="3600" y2="-2592"/>
		<line class="st6" x1="3672" y1="6048" x2="3672" y2="-2592"/>
		<line class="st6" x1="3744" y1="6048" x2="3744" y2="-2592"/>
		<line class="st6" x1="3816" y1="6048" x2="3816" y2="-2592"/>
		<line class="st6" x1="3888" y1="6048" x2="3888" y2="-2592"/>
		<line class="st6" x1="3960" y1="6048" x2="3960" y2="-2592"/>
		<line class="st6" x1="4032" y1="6048" x2="4032" y2="-2592"/>
		<line class="st6" x1="4104" y1="6048" x2="4104" y2="-2592"/>
		<line class="st6" x1="4176" y1="6048" x2="4176" y2="-2592"/>
		<line class="st6" x1="4248" y1="6048" x2="4248" y2="-2592"/>
		<line class="st6" x1="4320" y1="6048" x2="4320" y2="-2592"/>
		<line class="st6" x1="4392" y1="6048" x2="4392" y2="-2592"/>
		<line class="st6" x1="4464" y1="6048" x2="4464" y2="-2592"/>
		<line class="st6" x1="4536" y1="6048" x2="4536" y2="-2592"/>
		<line class="st6" x1="4608" y1="6048" x2="4608" y2="-2592"/>
		<line class="st6" x1="4680" y1="6048" x2="4680" y2="-2592"/>
		<line class="st6" x1="4752" y1="6048" x2="4752" y2="-2592"/>
		<line class="st6" x1="4824" y1="6048" x2="4824" y2="-2592"/>
		<line class="st6" x1="4896" y1="6048" x2="4896" y2="-2592"/>
		<line class="st6" x1="4968" y1="6048" x2="4968" y2="-2592"/>
		<line class="st6" x1="5040" y1="6048" x2="5040" y2="-2592"/>
		<line class="st6" x1="5112" y1="6048" x2="5112" y2="-2592"/>
		<line class="st6" x1="5184" y1="6048" x2="5184" y2="-2592"/>
		<line class="st6" x1="5256" y1="6048" x2="5256" y2="-2592"/>
		<line class="st6" x1="5328" y1="6048" x2="5328" y2="-2592"/>
		<line class="st6" x1="5400" y1="6048" x2="5400" y2="-2592"/>
		<line class="st6" x1="5472" y1="6048" x2="5472" y2="-2592"/>
		<line class="st6" x1="5544" y1="6048" x2="5544" y2="-2592"/>
		<line class="st6" x1="5616" y1="6048" x2="5616" y2="-2592"/>
		<line class="st6" x1="5688" y1="6048" x2="5688" y2="-2592"/>
		<line class="st6" x1="5760" y1="6048" x2="5760" y2="-2592"/>
		<line class="st6" x1="5832" y1="6048" x2="5832" y2="-2592"/>
		<line class="st6" x1="5904" y1="6048" x2="5904" y2="-2592"/>
		<line class="st6" x1="5976" y1="6048" x2="5976" y2="-2592"/>
		<line class="st6" x1="6048" y1="6048" x2="6048" y2="-2592"/>
		<line class="st6" x1="6120" y1="6048" x2="6120" y2="-2592"/>
		<line class="st6" x1="6192" y1="6048" x2="6192" y2="-2592"/>
		<line class="st6" x1="6264" y1="6048" x2="6264" y2="-2592"/>
		<line class="st6" x1="6336" y1="6048" x2="6336" y2="-2592"/>
		<line class="st6" x1="6408" y1="6048" x2="6408" y2="-2592"/>
		<line class="st6" x1="6480" y1="6048" x2="6480" y2="-2592"/>
		<line class="st6" x1="6552" y1="6048" x2="6552" y2="-2592"/>
		<line class="st6" x1="6624" y1="6048" x2="6624" y2="-2592"/>
		<line class="st6" x1="6696" y1="6048" x2="6696" y2="-2592"/>
		<line class="st6" x1="6768" y1="6048" x2="6768" y2="-2592"/>
		<line class="st6" x1="6840" y1="6048" x2="6840" y2="-2592"/>
		<line class="st6" x1="6912" y1="6048" x2="6912" y2="-2592"/>
		<line class="st6" x1="6984" y1="6048" x2="6984" y2="-2592"/>
		<line class="st6" x1="7056" y1="6048" x2="7056" y2="-2592"/>
		<line class="st6" x1="7128" y1="6048" x2="7128" y2="-2592"/>
		<line class="st6" x1="7200" y1="6048" x2="7200" y2="-2592"/>
		<line class="st6" x1="7272" y1="6048" x2="7272" y2="-2592"/>
		<line class="st6" x1="7344" y1="6048" x2="7344" y2="-2592"/>
		<line class="st6" x1="7416" y1="6048" x2="7416" y2="-2592"/>
		<line class="st6" x1="7488" y1="6048" x2="7488" y2="-2592"/>
		<line class="st6" x1="7560" y1="6048" x2="7560" y2="-2592"/>
		<line class="st6" x1="7632" y1="6048" x2="7632" y2="-2592"/>
		<line class="st6" x1="7704" y1="6048" x2="7704" y2="-2592"/>
		<line class="st6" x1="7776" y1="6048" x2="7776" y2="-2592"/>
		<line class="st6" x1="7848" y1="6048" x2="7848" y2="-2592"/>
		<line class="st6" x1="7920" y1="6048" x2="7920" y2="-2592"/>
		<line class="st6" x1="7992" y1="6048" x2="7992" y2="-2592"/>
		<line class="st6" x1="8064" y1="6048" x2="8064" y2="-2592"/>
		<line class="st6" x1="8136" y1="6048" x2="8136" y2="-2592"/>
		<line class="st6" x1="8208" y1="6048" x2="8208" y2="-2592"/>
		<line class="st6" x1="8280" y1="6048" x2="8280" y2="-2592"/>
		<line class="st6" x1="8352" y1="6048" x2="8352" y2="-2592"/>
		<line class="st6" x1="8424" y1="6048" x2="8424" y2="-2592"/>
		<line class="st6" x1="3738.5" y1="9394.4" x2="-3744" y2="5074.4"/>
		<line class="st6" x1="3774.5" y1="9332.1" x2="-3708" y2="5012.1"/>
		<line class="st6" x1="3810.5" y1="9269.7" x2="-3672" y2="4949.7"/>
		<line class="st6" x1="3846.5" y1="9207.4" x2="-3636" y2="4887.4"/>
		<line class="st6" x1="3882.5" y1="9145" x2="-3600" y2="4825"/>
		<line class="st6" x1="3918.5" y1="9082.7" x2="-3564" y2="4762.7"/>
		<line class="st6" x1="3954.5" y1="9020.3" x2="-3528" y2="4700.3"/>
		<line class="st6" x1="3990.5" y1="8958" x2="-3492" y2="4638"/>
		<line class="st6" x1="4026.5" y1="8895.6" x2="-3456" y2="4575.6"/>
		<line class="st6" x1="4062.5" y1="8833.3" x2="-3420" y2="4513.3"/>
		<line class="st6" x1="4098.5" y1="8770.9" x2="-3384" y2="4450.9"/>
		<line class="st6" x1="4134.5" y1="8708.5" x2="-3348" y2="4388.5"/>
		<line class="st6" x1="4170.5" y1="8646.2" x2="-3312" y2="4326.2"/>
		<line class="st6" x1="4206.5" y1="8583.8" x2="-3276" y2="4263.8"/>
		<line class="st6" x1="4242.5" y1="8521.5" x2="-3240" y2="4201.5"/>
		<line class="st6" x1="4278.5" y1="8459.1" x2="-3204" y2="4139.1"/>
		<line class="st6" x1="4314.5" y1="8396.8" x2="-3168" y2="4076.8"/>
		<line class="st6" x1="4350.5" y1="8334.4" x2="-3132" y2="4014.4"/>
		<line class="st6" x1="4386.5" y1="8272.1" x2="-3096" y2="3952.1"/>
		<line class="st6" x1="4422.5" y1="8209.7" x2="-3060" y2="3889.7"/>
		<line class="st6" x1="4458.5" y1="8147.4" x2="-3024" y2="3827.4"/>
		<line class="st6" x1="4494.5" y1="8085" x2="-2988" y2="3765"/>
		<line class="st6" x1="4530.5" y1="8022.7" x2="-2952" y2="3702.7"/>
		<line class="st6" x1="4566.5" y1="7960.3" x2="-2916" y2="3640.3"/>
		<line class="st6" x1="4602.5" y1="7897.9" x2="-2880" y2="3577.9"/>
		<line class="st6" x1="4638.5" y1="7835.6" x2="-2844" y2="3515.6"/>
		<line class="st6" x1="4674.5" y1="7773.2" x2="-2808" y2="3453.2"/>
		<line class="st6" x1="4710.5" y1="7710.9" x2="-2772" y2="3390.9"/>
		<line class="st6" x1="4746.5" y1="7648.5" x2="-2736" y2="3328.5"/>
		<line class="st6" x1="4782.5" y1="7586.2" x2="-2700" y2="3266.2"/>
		<line class="st6" x1="4818.5" y1="7523.8" x2="-2664" y2="3203.8"/>
		<line class="st6" x1="4854.5" y1="7461.5" x2="-2628" y2="3141.5"/>
		<line class="st6" x1="4890.5" y1="7399.1" x2="-2592" y2="3079.1"/>
		<line class="st6" x1="4926.5" y1="7336.8" x2="-2556" y2="3016.8"/>
		<line class="st6" x1="4962.5" y1="7274.4" x2="-2520" y2="2954.4"/>
		<line class="st6" x1="4998.5" y1="7212" x2="-2484" y2="2892"/>
		<line class="st6" x1="5034.5" y1="7149.7" x2="-2448" y2="2829.7"/>
		<line class="st6" x1="5070.5" y1="7087.3" x2="-2412" y2="2767.3"/>
		<line class="st6" x1="5106.5" y1="7025" x2="-2376" y2="2705"/>
		<line class="st6" x1="5142.5" y1="6962.6" x2="-2340" y2="2642.6"/>
		<line class="st6" x1="5178.5" y1="6900.3" x2="-2304" y2="2580.3"/>
		<line class="st6" x1="5214.5" y1="6837.9" x2="-2268" y2="2517.9"/>
		<line class="st6" x1="5250.5" y1="6775.6" x2="-2232" y2="2455.6"/>
		<line class="st6" x1="5286.5" y1="6713.2" x2="-2196" y2="2393.2"/>
		<line class="st6" x1="5322.5" y1="6650.9" x2="-2160" y2="2330.9"/>
		<line class="st6" x1="5358.5" y1="6588.5" x2="-2124" y2="2268.5"/>
		<line class="st6" x1="5394.5" y1="6526.2" x2="-2088" y2="2206.2"/>
		<line class="st6" x1="5430.5" y1="6463.8" x2="-2052" y2="2143.8"/>
		<line class="st6" x1="5466.5" y1="6401.5" x2="-2016" y2="2081.4"/>
		<line class="st6" x1="5502.5" y1="6339.1" x2="-1980" y2="2019.1"/>
		<line class="st6" x1="5538.5" y1="6276.7" x2="-1944" y2="1956.7"/>
		<line class="st6" x1="5574.5" y1="6214.4" x2="-1908" y2="1894.4"/>
		<line class="st6" x1="5610.5" y1="6152" x2="-1872" y2="1832"/>
		<line class="st6" x1="5646.5" y1="6089.7" x2="-1836" y2="1769.7"/>
		<line class="st6" x1="5682.5" y1="6027.3" x2="-1800" y2="1707.3"/>
		<line class="st6" x1="5718.5" y1="5965" x2="-1764" y2="1645"/>
		<line class="st6" x1="5754.5" y1="5902.6" x2="-1728" y2="1582.6"/>
		<line class="st6" x1="5790.5" y1="5840.3" x2="-1692" y2="1520.3"/>
		<line class="st6" x1="5826.5" y1="5777.9" x2="-1656" y2="1457.9"/>
		<line class="st6" x1="5862.5" y1="5715.6" x2="-1620" y2="1395.6"/>
		<line class="st6" x1="5898.5" y1="5653.2" x2="-1584" y2="1333.2"/>
		<line class="st6" x1="5934.5" y1="5590.8" x2="-1548" y2="1270.8"/>
		<line class="st6" x1="5970.5" y1="5528.5" x2="-1512" y2="1208.5"/>
		<line class="st6" x1="6006.5" y1="5466.1" x2="-1476" y2="1146.1"/>
		<line class="st6" x1="6042.5" y1="5403.8" x2="-1440" y2="1083.8"/>
		<line class="st6" x1="6078.5" y1="5341.4" x2="-1404" y2="1021.4"/>
		<line class="st6" x1="6114.5" y1="5279.1" x2="-1368" y2="959.1"/>
		<line class="st6" x1="6150.5" y1="5216.7" x2="-1332" y2="896.7"/>
		<line class="st6" x1="6186.5" y1="5154.4" x2="-1296" y2="834.4"/>
		<line class="st6" x1="6222.5" y1="5092" x2="-1260" y2="772"/>
		<line class="st6" x1="6258.5" y1="5029.7" x2="-1224" y2="709.7"/>
		<line class="st6" x1="6294.5" y1="4967.3" x2="-1188" y2="647.3"/>
		<line class="st6" x1="6330.5" y1="4905" x2="-1152" y2="585"/>
		<line class="st6" x1="6366.5" y1="4842.6" x2="-1116" y2="522.6"/>
		<line class="st6" x1="6402.5" y1="4780.3" x2="-1080" y2="460.2"/>
		<line class="st6" x1="6438.5" y1="4717.9" x2="-1044" y2="397.9"/>
		<line class="st6" x1="6474.5" y1="4655.5" x2="-1008" y2="335.5"/>
		<line class="st6" x1="6510.5" y1="4593.2" x2="-972" y2="273.2"/>
		<line class="st6" x1="6546.5" y1="4530.8" x2="-936" y2="210.8"/>
		<line class="st6" x1="6582.5" y1="4468.5" x2="-900" y2="148.5"/>
		<line class="st6" x1="6618.5" y1="4406.1" x2="-864" y2="86.1"/>
		<line class="st6" x1="6654.5" y1="4343.8" x2="-828" y2="23.8"/>
		<line class="st6" x1="6690.5" y1="4281.4" x2="-792" y2="-38.6"/>
		<line class="st6" x1="6726.5" y1="4219.1" x2="-756" y2="-100.9"/>
		<line class="st6" x1="6762.5" y1="4156.7" x2="-720" y2="-163.3"/>
		<line class="st6" x1="6798.5" y1="4094.4" x2="-684" y2="-225.6"/>
		<line class="st6" x1="6834.5" y1="4032" x2="-648" y2="-288"/>
		<line class="st6" x1="6870.5" y1="3969.7" x2="-612" y2="-350.4"/>
		<line class="st6" x1="6906.5" y1="3907.3" x2="-576" y2="-412.7"/>
		<line class="st6" x1="6942.5" y1="3844.9" x2="-540" y2="-475.1"/>
		<line class="st6" x1="6978.5" y1="3782.6" x2="-504" y2="-537.4"/>
		<line class="st6" x1="7014.5" y1="3720.2" x2="-468" y2="-599.8"/>
		<line class="st6" x1="7050.5" y1="3657.9" x2="-432" y2="-662.1"/>
		<line class="st6" x1="7086.5" y1="3595.5" x2="-396" y2="-724.5"/>
		<line class="st6" x1="7122.5" y1="3533.2" x2="-360" y2="-786.8"/>
		<line class="st6" x1="7158.5" y1="3470.8" x2="-324" y2="-849.2"/>
		<line class="st6" x1="7194.5" y1="3408.5" x2="-288" y2="-911.5"/>
		<line class="st6" x1="7230.5" y1="3346.1" x2="-252" y2="-973.9"/>
		<line class="st6" x1="7266.5" y1="3283.8" x2="-216" y2="-1036.2"/>
		<line class="st6" x1="7302.5" y1="3221.4" x2="-180" y2="-1098.6"/>
		<line class="st6" x1="7338.5" y1="3159" x2="-144" y2="-1161"/>
		<line class="st6" x1="7374.5" y1="3096.7" x2="-108" y2="-1223.3"/>
		<line class="st6" x1="7410.5" y1="3034.3" x2="-72" y2="-1285.7"/>
		<line class="st6" x1="7446.5" y1="2972" x2="-36" y2="-1348"/>
		<line class="st6" x1="7482.5" y1="2909.6" x2="0" y2="-1410.4"/>
		<line class="st6" x1="7518.5" y1="2847.3" x2="36" y2="-1472.7"/>
		<line class="st6" x1="7554.5" y1="2784.9" x2="72" y2="-1535.1"/>
		<line class="st6" x1="7590.5" y1="2722.6" x2="108" y2="-1597.4"/>
		<line class="st6" x1="7626.5" y1="2660.2" x2="144" y2="-1659.8"/>
		<line class="st6" x1="7662.5" y1="2597.9" x2="180" y2="-1722.1"/>
		<line class="st6" x1="7698.5" y1="2535.5" x2="216" y2="-1784.5"/>
		<line class="st6" x1="7734.5" y1="2473.2" x2="252" y2="-1846.8"/>
		<line class="st6" x1="7770.5" y1="2410.8" x2="288" y2="-1909.2"/>
		<line class="st6" x1="7806.5" y1="2348.4" x2="324" y2="-1971.6"/>
		<line class="st6" x1="7842.5" y1="2286.1" x2="360" y2="-2033.9"/>
		<line class="st6" x1="7878.5" y1="2223.7" x2="396" y2="-2096.3"/>
		<line class="st6" x1="7914.5" y1="2161.4" x2="432" y2="-2158.6"/>
		<line class="st6" x1="7950.5" y1="2099" x2="468" y2="-2221"/>
		<line class="st6" x1="7986.5" y1="2036.7" x2="504" y2="-2283.3"/>
		<line class="st6" x1="8022.5" y1="1974.3" x2="540" y2="-2345.7"/>
		<line class="st6" x1="8058.5" y1="1912" x2="576" y2="-2408"/>
		<line class="st6" x1="8094.5" y1="1849.6" x2="612" y2="-2470.4"/>
		<line class="st6" x1="8130.5" y1="1787.3" x2="648" y2="-2532.7"/>
		<line class="st6" x1="8166.5" y1="1724.9" x2="684" y2="-2595.1"/>
		<line class="st6" x1="8202.5" y1="1662.6" x2="720" y2="-2657.4"/>
		<line class="st6" x1="8238.5" y1="1600.2" x2="756" y2="-2719.8"/>
		<line class="st6" x1="8274.5" y1="1537.8" x2="792" y2="-2782.2"/>
		<line class="st6" x1="833.1" y1="9332.3" x2="8315.6" y2="5012.3"/>
		<line class="st6" x1="797.1" y1="9270" x2="8279.6" y2="4950"/>
		<line class="st6" x1="761.1" y1="9207.6" x2="8243.6" y2="4887.6"/>
		<line class="st6" x1="725.1" y1="9145.3" x2="8207.6" y2="4825.3"/>
		<line class="st6" x1="689.1" y1="9082.9" x2="8171.6" y2="4762.9"/>
		<line class="st6" x1="653.1" y1="9020.6" x2="8135.6" y2="4700.6"/>
		<line class="st6" x1="617.1" y1="8958.2" x2="8099.6" y2="4638.2"/>
		<line class="st6" x1="581.1" y1="8895.9" x2="8063.6" y2="4575.9"/>
		<line class="st6" x1="545.1" y1="8833.5" x2="8027.6" y2="4513.5"/>
		<line class="st6" x1="509.1" y1="8771.1" x2="7991.6" y2="4451.1"/>
		<line class="st6" x1="473.1" y1="8708.8" x2="7955.6" y2="4388.8"/>
		<line class="st6" x1="437.1" y1="8646.4" x2="7919.6" y2="4326.4"/>
		<line class="st6" x1="401.1" y1="8584.1" x2="7883.6" y2="4264.1"/>
		<line class="st6" x1="365.1" y1="8521.7" x2="7847.6" y2="4201.7"/>
		<line class="st6" x1="329.1" y1="8459.4" x2="7811.6" y2="4139.4"/>
		<line class="st6" x1="293.1" y1="8397" x2="7775.6" y2="4077"/>
		<line class="st6" x1="257.1" y1="8334.7" x2="7739.6" y2="4014.7"/>
		<line class="st6" x1="221.1" y1="8272.3" x2="7703.6" y2="3952.3"/>
		<line class="st6" x1="185.1" y1="8210" x2="7667.6" y2="3890"/>
		<line class="st6" x1="149.1" y1="8147.6" x2="7631.6" y2="3827.6"/>
		<line class="st6" x1="113.1" y1="8085.3" x2="7595.6" y2="3765.3"/>
		<line class="st6" x1="77.1" y1="8022.9" x2="7559.6" y2="3702.9"/>
		<line class="st6" x1="41.1" y1="7960.6" x2="7523.6" y2="3640.6"/>
		<line class="st6" x1="5.1" y1="7898.2" x2="7487.6" y2="3578.2"/>
		<line class="st6" x1="-30.9" y1="7835.8" x2="7451.6" y2="3515.8"/>
		<line class="st6" x1="-66.9" y1="7773.5" x2="7415.6" y2="3453.5"/>
		<line class="st6" x1="-102.9" y1="7711.1" x2="7379.6" y2="3391.1"/>
		<line class="st6" x1="-138.9" y1="7648.8" x2="7343.6" y2="3328.8"/>
		<line class="st6" x1="-174.9" y1="7586.4" x2="7307.6" y2="3266.4"/>
		<line class="st6" x1="-210.9" y1="7524.1" x2="7271.6" y2="3204.1"/>
		<line class="st6" x1="-246.9" y1="7461.7" x2="7235.6" y2="3141.7"/>
		<line class="st6" x1="-282.9" y1="7399.4" x2="7199.6" y2="3079.4"/>
		<line class="st6" x1="-318.9" y1="7337" x2="7163.6" y2="3017"/>
		<line class="st6" x1="-354.9" y1="7274.6" x2="7127.6" y2="2954.6"/>
		<line class="st6" x1="-390.9" y1="7212.3" x2="7091.6" y2="2892.3"/>
		<line class="st6" x1="-426.9" y1="7149.9" x2="7055.6" y2="2829.9"/>
		<line class="st6" x1="-462.9" y1="7087.6" x2="7019.6" y2="2767.6"/>
		<line class="st6" x1="-498.9" y1="7025.2" x2="6983.6" y2="2705.2"/>
		<line class="st6" x1="-534.9" y1="6962.9" x2="6947.6" y2="2642.9"/>
		<line class="st6" x1="-570.9" y1="6900.5" x2="6911.6" y2="2580.5"/>
		<line class="st6" x1="-606.9" y1="6838.2" x2="6875.6" y2="2518.2"/>
		<line class="st6" x1="-642.9" y1="6775.8" x2="6839.6" y2="2455.8"/>
		<line class="st6" x1="-678.9" y1="6713.5" x2="6803.6" y2="2393.5"/>
		<line class="st6" x1="-714.9" y1="6651.1" x2="6767.6" y2="2331.1"/>
		<line class="st6" x1="-750.9" y1="6588.8" x2="6731.6" y2="2268.8"/>
		<line class="st6" x1="-786.9" y1="6526.4" x2="6695.6" y2="2206.4"/>
		<line class="st6" x1="-822.9" y1="6464.1" x2="6659.6" y2="2144.1"/>
		<line class="st6" x1="-858.9" y1="6401.7" x2="6623.6" y2="2081.7"/>
		<line class="st6" x1="-894.9" y1="6339.4" x2="6587.6" y2="2019.3"/>
		<line class="st6" x1="-930.9" y1="6277" x2="6551.6" y2="1957"/>
		<line class="st6" x1="-966.9" y1="6214.6" x2="6515.6" y2="1894.6"/>
		<line class="st6" x1="-1002.9" y1="6152.3" x2="6479.6" y2="1832.3"/>
		<line class="st6" x1="-1038.9" y1="6089.9" x2="6443.6" y2="1769.9"/>
		<line class="st6" x1="-1074.9" y1="6027.6" x2="6407.6" y2="1707.6"/>
		<line class="st6" x1="-1110.9" y1="5965.2" x2="6371.6" y2="1645.2"/>
		<line class="st6" x1="-1146.9" y1="5902.9" x2="6335.6" y2="1582.9"/>
		<line class="st6" x1="-1182.9" y1="5840.5" x2="6299.6" y2="1520.5"/>
		<line class="st6" x1="-1218.9" y1="5778.2" x2="6263.6" y2="1458.2"/>
		<line class="st6" x1="-1254.9" y1="5715.8" x2="6227.6" y2="1395.8"/>
		<line class="st6" x1="-1290.9" y1="5653.5" x2="6191.6" y2="1333.5"/>
		<line class="st6" x1="-1326.9" y1="5591.1" x2="6155.6" y2="1271.1"/>
		<line class="st6" x1="-1362.9" y1="5528.7" x2="6119.6" y2="1208.7"/>
		<line class="st6" x1="-1398.9" y1="5466.4" x2="6083.6" y2="1146.4"/>
		<line class="st6" x1="-1434.9" y1="5404" x2="6047.6" y2="1084"/>
		<line class="st6" x1="-1470.9" y1="5341.7" x2="6011.6" y2="1021.7"/>
		<line class="st6" x1="-1506.9" y1="5279.3" x2="5975.6" y2="959.3"/>
		<line class="st6" x1="-1542.9" y1="5217" x2="5939.6" y2="897"/>
		<line class="st6" x1="-1578.9" y1="5154.6" x2="5903.6" y2="834.6"/>
		<line class="st6" x1="-1614.9" y1="5092.3" x2="5867.6" y2="772.3"/>
		<line class="st6" x1="-1650.9" y1="5029.9" x2="5831.6" y2="709.9"/>
		<line class="st6" x1="-1686.9" y1="4967.6" x2="5795.6" y2="647.6"/>
		<line class="st6" x1="-1722.9" y1="4905.2" x2="5759.6" y2="585.2"/>
		<line class="st6" x1="-1758.9" y1="4842.9" x2="5723.6" y2="522.9"/>
		<line class="st6" x1="-1794.9" y1="4780.5" x2="5687.6" y2="460.5"/>
		<line class="st6" x1="-1830.9" y1="4718.1" x2="5651.6" y2="398.1"/>
		<line class="st6" x1="-1866.9" y1="4655.8" x2="5615.6" y2="335.8"/>
		<line class="st6" x1="-1902.9" y1="4593.4" x2="5579.6" y2="273.4"/>
		<line class="st6" x1="-1938.9" y1="4531.1" x2="5543.6" y2="211.1"/>
		<line class="st6" x1="-1974.9" y1="4468.7" x2="5507.6" y2="148.7"/>
		<line class="st6" x1="-2010.9" y1="4406.4" x2="5471.6" y2="86.4"/>
		<line class="st6" x1="-2046.9" y1="4344" x2="5435.6" y2="24"/>
		<line class="st6" x1="-2082.9" y1="4281.7" x2="5399.6" y2="-38.3"/>
		<line class="st6" x1="-2118.9" y1="4219.3" x2="5363.6" y2="-100.7"/>
		<line class="st6" x1="-2154.9" y1="4157" x2="5327.6" y2="-163"/>
		<line class="st6" x1="-2190.9" y1="4094.6" x2="5291.6" y2="-225.4"/>
		<line class="st6" x1="-2226.9" y1="4032.3" x2="5255.6" y2="-287.7"/>
		<line class="st6" x1="-2262.9" y1="3969.9" x2="5219.6" y2="-350.1"/>
		<line class="st6" x1="-2298.9" y1="3907.6" x2="5183.6" y2="-412.5"/>
		<line class="st6" x1="-2334.9" y1="3845.2" x2="5147.6" y2="-474.8"/>
		<line class="st6" x1="-2370.9" y1="3782.8" x2="5111.6" y2="-537.2"/>
		<line class="st6" x1="-2406.9" y1="3720.5" x2="5075.6" y2="-599.5"/>
		<line class="st6" x1="-2442.9" y1="3658.1" x2="5039.6" y2="-661.9"/>
		<line class="st6" x1="-2478.9" y1="3595.8" x2="5003.6" y2="-724.2"/>
		<line class="st6" x1="-2514.9" y1="3533.4" x2="4967.6" y2="-786.6"/>
		<line class="st6" x1="-2550.9" y1="3471.1" x2="4931.6" y2="-848.9"/>
		<line class="st6" x1="-2586.9" y1="3408.7" x2="4895.6" y2="-911.3"/>
		<line class="st6" x1="-2622.9" y1="3346.4" x2="4859.6" y2="-973.6"/>
		<line class="st6" x1="-2658.9" y1="3284" x2="4823.6" y2="-1036"/>
		<line class="st6" x1="-2694.9" y1="3221.7" x2="4787.6" y2="-1098.3"/>
		<line class="st6" x1="-2730.9" y1="3159.3" x2="4751.6" y2="-1160.7"/>
		<line class="st6" x1="-2766.9" y1="3096.9" x2="4715.6" y2="-1223.1"/>
		<line class="st6" x1="-2802.9" y1="3034.6" x2="4679.6" y2="-1285.4"/>
		<line class="st6" x1="-2838.9" y1="2972.2" x2="4643.6" y2="-1347.8"/>
		<line class="st6" x1="-2874.9" y1="2909.9" x2="4607.6" y2="-1410.1"/>
		<line class="st6" x1="-2910.9" y1="2847.5" x2="4571.6" y2="-1472.5"/>
		<line class="st6" x1="-2946.9" y1="2785.2" x2="4535.6" y2="-1534.8"/>
		<line class="st6" x1="-2982.9" y1="2722.8" x2="4499.6" y2="-1597.2"/>
		<line class="st6" x1="-3018.9" y1="2660.5" x2="4463.6" y2="-1659.5"/>
		<line class="st6" x1="-3054.9" y1="2598.1" x2="4427.6" y2="-1721.9"/>
		<line class="st6" x1="-3090.9" y1="2535.8" x2="4391.6" y2="-1784.2"/>
		<line class="st6" x1="-3126.9" y1="2473.4" x2="4355.6" y2="-1846.6"/>
		<line class="st6" x1="-3162.9" y1="2411.1" x2="4319.6" y2="-1908.9"/>
		<line class="st6" x1="-3198.9" y1="2348.7" x2="4283.6" y2="-1971.3"/>
		<line class="st6" x1="-3234.9" y1="2286.3" x2="4247.6" y2="-2033.7"/>
		<path id="SVGID_x5F_3_x5F_" style="fill:none;" d="M-3422.9-682.4l7482.5-994.9"/>
		<text>		<textPath  xlink:href="#SVGID_x5F_3_x5F_" startOffset="45.148%">
		</textPath>
</text>
		<line class="st6" x1="-3306.9" y1="2161.6" x2="4175.6" y2="-2158.4"/>
		<line class="st6" x1="-3342.9" y1="2099.3" x2="4139.6" y2="-2220.7"/>
		<line class="st6" x1="-3378.9" y1="2036.9" x2="4103.6" y2="-2283.1"/>
		<line class="st6" x1="-3414.9" y1="1974.6" x2="4067.6" y2="-2345.4"/>
		<line class="st6" x1="-3450.9" y1="1912.2" x2="4031.6" y2="-2407.8"/>
		<line class="st6" x1="-3486.9" y1="1849.9" x2="3995.6" y2="-2470.1"/>
		<line class="st6" x1="-3522.9" y1="1787.5" x2="3959.6" y2="-2532.5"/>
		<line class="st6" x1="-3558.9" y1="1725.2" x2="3923.6" y2="-2594.8"/>
		<line class="st6" x1="-3594.9" y1="1662.8" x2="3887.6" y2="-2657.2"/>
		<line class="st6" x1="-3630.9" y1="1600.5" x2="3851.6" y2="-2719.5"/>
		<line class="st6" x1="-3666.9" y1="1538.1" x2="3815.6" y2="-2781.9"/>
		<line class="st6" x1="-3702.9" y1="1475.7" x2="3779.6" y2="-2844.3"/>
	</g>
</g>
<polyline class="st7" points="1798.8,5706.7 1798.8,5042.3 646.2,4376.9 646.2,1716.5 70.2,1384.2 70.2,4709.4 1798.8,5706.7 "/>
<polyline class="st8" points="1798.2,5707.1 1798.2,3711.7 2950.2,3046.4 2950.2,2381.6 1798.2,3046.4 1798.2,2381.7 3526.2,1383.9 
	3526,3379.2 2374.2,4044.5 2374.2,4709.2 3529.8,4048.2 3529.8,4241.4 3526.2,4709.4 1798.2,5706.7 "/>
<polygon class="st9" points="1222.2,4709.2 1222.1,4044.3 646.2,4376.9 "/>
<polygon class="st7" points="1222.2,4709.2 1222.2,3379.2 1798.2,3711.7 1798.8,5042.3 "/>
<polygon class="st7" points="1222.2,2049 1222.1,2714.1 1798.2,3046.4 1798.2,2381.7 "/>
<polygon class="st2" points="2950.2,1051.4 3526.2,1383.9 1798.2,2381.7 1222.2,2049 "/>
<polygon class="st2" points="70.2,1384.2 646.2,1051.3 1222.2,1383.9 646.2,1716.5 "/>
<polygon class="st9" points="1222.1,4044.3 646.2,4376.9 646.2,1716.5 1222.2,1383.9 "/>
<polygon class="st2" points="2950.2,3046.4 2950.2,2381.6 2373.9,2714.3 "/>
</svg>
